<svg width="18" height="18" viewBox="0 0 18 18" fill="none" xmlns="http://www.w3.org/2000/svg">
<path d="M13.5 6.00098C13.5 4.8075 13.0259 3.66291 12.182 2.819C11.3381 1.97508 10.1935 1.50098 9 1.50098C7.80653 1.50098 6.66193 1.97508 5.81802 2.819C4.97411 3.66291 4.5 4.8075 4.5 6.00098C4.5 11.251 2.25 12.751 2.25 12.751H15.75C15.75 12.751 13.5 11.251 13.5 6.00098Z" fill="#5C0000" stroke="#5C0000" stroke-linecap="round" stroke-linejoin="round"/>
<path d="M10.2981 15.75C10.1663 15.9773 9.97701 16.166 9.74929 16.2971C9.52158 16.4283 9.26341 16.4973 9.00062 16.4973C8.73784 16.4973 8.47967 16.4283 8.25196 16.2971C8.02424 16.166 7.83498 15.9773 7.70312 15.75" stroke="#5C0000" stroke-linecap="round" stroke-linejoin="round"/>
</svg>
