<svg width="12" height="11" viewBox="0 0 12 11" fill="none" xmlns="http://www.w3.org/2000/svg">
<g clip-path="url(#clip0_286_2130)">
<path d="M5.5 1.83301H2C1.73478 1.83301 1.48043 1.92958 1.29289 2.10149C1.10536 2.2734 1 2.50656 1 2.74967V9.16634C1 9.40946 1.10536 9.64261 1.29289 9.81452C1.48043 9.98643 1.73478 10.083 2 10.083H9C9.26522 10.083 9.51957 9.98643 9.70711 9.81452C9.89464 9.64261 10 9.40946 10 9.16634V5.95801" stroke="#C50709" stroke-width="0.5" stroke-linecap="round" stroke-linejoin="round"/>
<path d="M9.25 1.1461C9.44891 0.963764 9.7187 0.861328 10 0.861328C10.2813 0.861328 10.5511 0.963764 10.75 1.1461C10.9489 1.32844 11.0607 1.57574 11.0607 1.8336C11.0607 2.09146 10.9489 2.33876 10.75 2.5211L6 6.87527L4 7.3336L4.5 5.50027L9.25 1.1461Z" stroke="#C50709" stroke-width="0.5" stroke-linecap="round" stroke-linejoin="round"/>
</g>
<defs>
<clipPath id="clip0_286_2130">
<rect width="12" height="11" fill="white"/>
</clipPath>
</defs>
</svg>
