<svg width="17" height="17" viewBox="0 0 17 17" fill="none" xmlns="http://www.w3.org/2000/svg">
<g clip-path="url(#clip0_116_9717)">
<path d="M8.90724 15.2437C12.5861 15.2437 15.5684 12.3109 15.5684 8.69314C15.5684 5.07536 12.5861 2.14258 8.90724 2.14258C5.22839 2.14258 2.24609 5.07536 2.24609 8.69314C2.24609 12.3109 5.22839 15.2437 8.90724 15.2437Z" stroke="#C50709" stroke-linecap="round" stroke-linejoin="round"/>
<path d="M2.24609 8.69238H15.5684" stroke="#C50709" stroke-linecap="round" stroke-linejoin="round"/>
<path d="M8.90762 2.14258C10.5738 3.93635 11.5206 6.26421 11.5721 8.69314C11.5206 11.1221 10.5738 13.4499 8.90762 15.2437C7.24148 13.4499 6.29462 11.1221 6.24316 8.69314C6.29462 6.26421 7.24148 3.93635 8.90762 2.14258Z" stroke="#C50709" stroke-linecap="round" stroke-linejoin="round"/>
</g>
<defs>
<clipPath id="clip0_116_9717">
<rect width="15.9868" height="15.7213" fill="white" transform="translate(0.914062 0.832031)"/>
</clipPath>
</defs>
</svg>
