<svg width="27" height="26" viewBox="0 0 27 26" fill="none" xmlns="http://www.w3.org/2000/svg">
<path d="M22.9344 5.51182C23.4609 5.51182 23.8878 5.0949 23.8878 4.58062C23.8878 4.06633 23.4609 3.64941 22.9344 3.64941C22.4078 3.64941 21.981 4.06633 21.981 4.58062C21.981 5.0949 22.4078 5.51182 22.9344 5.51182Z" stroke="#C50709" stroke-width="0.8" stroke-linecap="round" stroke-linejoin="round"/>
<path d="M25.2852 5.51162C25.2429 5.60524 25.2303 5.7091 25.2489 5.80979C25.2676 5.91048 25.3168 6.0034 25.3901 6.07655L25.4091 6.09517C25.4682 6.15283 25.5151 6.2213 25.5471 6.29666C25.5791 6.37203 25.5955 6.45281 25.5955 6.53439C25.5955 6.61597 25.5791 6.69676 25.5471 6.77212C25.5151 6.84748 25.4682 6.91595 25.4091 6.97361C25.3501 7.03133 25.28 7.07712 25.2028 7.10836C25.1257 7.1396 25.043 7.15568 24.9594 7.15568C24.8759 7.15568 24.7932 7.1396 24.716 7.10836C24.6389 7.07712 24.5688 7.03133 24.5097 6.97361L24.4907 6.95498C24.4158 6.88342 24.3206 6.83542 24.2175 6.81716C24.1144 6.79891 24.0081 6.81123 23.9122 6.85255C23.8182 6.8919 23.7381 6.95723 23.6816 7.04051C23.6251 7.12379 23.5948 7.22137 23.5944 7.32126V7.37402C23.5944 7.53867 23.5275 7.69657 23.4083 7.813C23.2891 7.92942 23.1274 7.99483 22.9588 7.99483C22.7902 7.99483 22.6286 7.92942 22.5094 7.813C22.3902 7.69657 22.3232 7.53867 22.3232 7.37402V7.34609C22.3207 7.24335 22.2867 7.14371 22.2255 7.06012C22.1643 6.97653 22.0787 6.91286 21.98 6.87738C21.8841 6.83606 21.7778 6.82374 21.6747 6.842C21.5716 6.86025 21.4765 6.90826 21.4016 6.97982L21.3825 6.99844C21.3235 7.05616 21.2534 7.10195 21.1762 7.13319C21.099 7.16443 21.0163 7.18051 20.9328 7.18051C20.8493 7.18051 20.7665 7.16443 20.6894 7.13319C20.6122 7.10195 20.5421 7.05616 20.4831 6.99844C20.424 6.94078 20.3771 6.87232 20.3451 6.79695C20.3131 6.72159 20.2967 6.64081 20.2967 6.55922C20.2967 6.47764 20.3131 6.39686 20.3451 6.32149C20.3771 6.24613 20.424 6.17766 20.4831 6.12001L20.5022 6.10138C20.5754 6.02823 20.6246 5.93531 20.6433 5.83462C20.662 5.73393 20.6493 5.63008 20.607 5.53645C20.5667 5.44465 20.4999 5.36635 20.4146 5.3112C20.3293 5.25605 20.2294 5.22645 20.1271 5.22605H20.0731C19.9045 5.22605 19.7429 5.16065 19.6237 5.04422C19.5045 4.9278 19.4375 4.7699 19.4375 4.60525C19.4375 4.44061 19.5045 4.2827 19.6237 4.16628C19.7429 4.04986 19.9045 3.98445 20.0731 3.98445H20.1017C20.2069 3.98205 20.3089 3.94879 20.3945 3.88901C20.4801 3.82922 20.5453 3.74567 20.5816 3.64922C20.6239 3.5556 20.6365 3.45174 20.6178 3.35105C20.5991 3.25036 20.55 3.15745 20.4767 3.08429L20.4577 3.06567C20.3986 3.00801 20.3517 2.93954 20.3197 2.86418C20.2877 2.78882 20.2712 2.70803 20.2712 2.62645C20.2712 2.54487 20.2877 2.46408 20.3197 2.38872C20.3517 2.31336 20.3986 2.24489 20.4577 2.18723C20.5167 2.12951 20.5868 2.08372 20.664 2.05248C20.7411 2.02124 20.8238 2.00516 20.9074 2.00516C20.9909 2.00516 21.0736 2.02124 21.1508 2.05248C21.2279 2.08372 21.298 2.12951 21.3571 2.18723L21.3761 2.20586C21.451 2.27742 21.5462 2.32542 21.6493 2.34368C21.7524 2.36193 21.8587 2.34961 21.9545 2.30829H21.98C22.074 2.26894 22.1541 2.20361 22.2106 2.12033C22.2671 2.03705 22.2974 1.93947 22.2978 1.83958V1.78682C22.2978 1.62217 22.3647 1.46427 22.4839 1.34784C22.6031 1.23142 22.7648 1.16602 22.9334 1.16602C23.102 1.16602 23.2636 1.23142 23.3828 1.34784C23.502 1.46427 23.569 1.62217 23.569 1.78682V1.81475C23.5694 1.91464 23.5997 2.01222 23.6562 2.0955C23.7127 2.17878 23.7928 2.24411 23.8868 2.28346C23.9827 2.32478 24.089 2.3371 24.1921 2.31884C24.2952 2.30059 24.3903 2.25258 24.4652 2.18103L24.4843 2.1624C24.5433 2.10468 24.6134 2.05889 24.6906 2.02765C24.7678 1.99641 24.8505 1.98033 24.934 1.98033C25.0175 1.98033 25.1002 1.99641 25.1774 2.02765C25.2546 2.05889 25.3247 2.10468 25.3837 2.1624C25.4428 2.22006 25.4897 2.28852 25.5217 2.36389C25.5537 2.43925 25.5701 2.52003 25.5701 2.60162C25.5701 2.6832 25.5537 2.76398 25.5217 2.83935C25.4897 2.91471 25.4428 2.98318 25.3837 3.04083L25.3646 3.05946C25.2914 3.13261 25.2422 3.22553 25.2235 3.32622C25.2048 3.42691 25.2174 3.53077 25.2598 3.62439V3.64922C25.3 3.74103 25.3669 3.81932 25.4522 3.87447C25.5375 3.92962 25.6374 3.95922 25.7396 3.95962H25.7937C25.9622 3.95962 26.1239 4.02503 26.2431 4.14145C26.3623 4.25787 26.4293 4.41577 26.4293 4.58042C26.4293 4.74507 26.3623 4.90297 26.2431 5.01939C26.1239 5.13582 25.9622 5.20122 25.7937 5.20122H25.7651C25.6628 5.20162 25.5629 5.23122 25.4776 5.28637C25.3924 5.34152 25.3255 5.41981 25.2852 5.51162Z" stroke="#C50709" stroke-width="0.8" stroke-linecap="round" stroke-linejoin="round"/>
<g clip-path="url(#clip0_116_9534)">
<path d="M20.3912 18.7549V11.5122C20.3908 11.1947 20.3025 10.8828 20.1352 10.6079C19.9679 10.333 19.7273 10.1047 19.4377 9.94595L12.7638 6.32461C12.4739 6.1657 12.145 6.08203 11.8103 6.08203C11.4756 6.08203 11.1468 6.1657 10.8569 6.32461L4.18292 9.94595C3.89333 10.1047 3.65279 10.333 3.48545 10.6079C3.31811 10.8828 3.22984 11.1947 3.22949 11.5122V18.7549C3.22984 19.0724 3.31811 19.3842 3.48545 19.6591C3.65279 19.934 3.89333 20.1623 4.18292 20.3211L10.8569 23.9424C11.1468 24.1013 11.4756 24.185 11.8103 24.185C12.145 24.185 12.4739 24.1013 12.7638 23.9424L19.4377 20.3211C19.7273 20.1623 19.9679 19.934 20.1352 19.6591C20.3025 19.3842 20.3908 19.0724 20.3912 18.7549Z" stroke="#C50709" stroke-width="1.5" stroke-linecap="round" stroke-linejoin="round"/>
<path d="M7.52002 8.08105L11.8104 10.4349L16.1009 8.08105" stroke="#C50709" stroke-width="1.5" stroke-linecap="round" stroke-linejoin="round"/>
<path d="M7.51991 22.1863V17.4877L3.22949 15.1338" stroke="#C50709" stroke-width="1.5" stroke-linecap="round" stroke-linejoin="round"/>
<path d="M20.391 15.1338L16.1006 17.4877V22.1863" stroke="#C50709" stroke-width="1.5" stroke-linecap="round" stroke-linejoin="round"/>
<path d="M3.48682 10.5703L11.8102 15.1423L20.1336 10.5703" stroke="#C50709" stroke-width="1.5" stroke-linecap="round" stroke-linejoin="round"/>
<path d="M11.8101 24.2596V15.1338" stroke="#C50709" stroke-width="1.5" stroke-linecap="round" stroke-linejoin="round"/>
</g>
<defs>
<clipPath id="clip0_116_9534">
<rect width="22.8822" height="21.728" fill="white" transform="translate(0.369141 4.26953)"/>
</clipPath>
</defs>
</svg>
