<svg width="32" height="31" viewBox="0 0 32 31" fill="none" xmlns="http://www.w3.org/2000/svg">
<ellipse cx="16" cy="15.5" rx="16" ry="15.5" fill="#FFEAEA"/>
<path d="M10.125 11H11.5417H22.875" stroke="#D60609" stroke-linecap="round" stroke-linejoin="round"/>
<path d="M21.4587 10.9997V20.333C21.4587 20.6866 21.3094 21.0258 21.0437 21.2758C20.778 21.5259 20.4177 21.6663 20.042 21.6663H12.9587C12.5829 21.6663 12.2226 21.5259 11.9569 21.2758C11.6912 21.0258 11.542 20.6866 11.542 20.333V10.9997M13.667 10.9997V9.66634C13.667 9.31272 13.8162 8.97358 14.0819 8.72353C14.3476 8.47348 14.7079 8.33301 15.0837 8.33301H17.917C18.2927 8.33301 18.653 8.47348 18.9187 8.72353C19.1844 8.97358 19.3337 9.31272 19.3337 9.66634V10.9997" stroke="#D60609" stroke-linecap="round" stroke-linejoin="round"/>
<path d="M15.083 14.333V18.333" stroke="#D60609" stroke-linecap="round" stroke-linejoin="round"/>
<path d="M17.917 14.333V18.333" stroke="#D60609" stroke-linecap="round" stroke-linejoin="round"/>
</svg>
