<svg width="28" height="29" viewBox="0 0 28 29" fill="none" xmlns="http://www.w3.org/2000/svg">
<path d="M21.2428 21.0187V13.383C21.2424 13.0483 21.1488 12.7195 20.9713 12.4297C20.7938 12.1398 20.5387 11.8992 20.2316 11.7318L13.1531 7.91395C12.8457 7.74641 12.4969 7.6582 12.1419 7.6582C11.7869 7.6582 11.4381 7.74641 11.1307 7.91395L4.05222 11.7318C3.74508 11.8992 3.48997 12.1398 3.31249 12.4297C3.135 12.7195 3.04138 13.0483 3.04102 13.383V21.0187C3.04138 21.3535 3.135 21.6822 3.31249 21.9721C3.48997 22.2619 3.74508 22.5025 4.05222 22.6699L11.1307 26.4878C11.4381 26.6553 11.7869 26.7435 12.1419 26.7435C12.4969 26.7435 12.8457 26.6553 13.1531 26.4878L20.2316 22.6699C20.5387 22.5025 20.7938 22.2619 20.9713 21.9721C21.1488 21.6822 21.2424 21.3535 21.2428 21.0187Z" stroke="#C50709" stroke-width="1.5" stroke-linecap="round" stroke-linejoin="round"/>
<path d="M7.59131 9.76562L12.1418 12.2472L16.6922 9.76562" stroke="#C50709" stroke-width="1.5" stroke-linecap="round" stroke-linejoin="round"/>
<path d="M7.59146 24.6355V19.6818L3.04102 17.2002" stroke="#C50709" stroke-width="1.5" stroke-linecap="round" stroke-linejoin="round"/>
<path d="M21.2428 17.2002L16.6924 19.6818V24.6355" stroke="#C50709" stroke-width="1.5" stroke-linecap="round" stroke-linejoin="round"/>
<path d="M3.31396 12.3896L12.1418 17.2097L20.9697 12.3896" stroke="#C50709" stroke-width="1.5" stroke-linecap="round" stroke-linejoin="round"/>
<path d="M12.1416 26.8212V17.2002" stroke="#C50709" stroke-width="1.5" stroke-linecap="round" stroke-linejoin="round"/>
<path d="M22.2539 2.4209V7.76588" stroke="#C50709" stroke-width="1.5" stroke-linecap="round" stroke-linejoin="round"/>
<path d="M19.1079 5.09375H25.3999" stroke="#C50709" stroke-width="1.5" stroke-linecap="round" stroke-linejoin="round"/>
</svg>
