<svg width="17" height="17" viewBox="0 0 17 17" fill="none" xmlns="http://www.w3.org/2000/svg">
<path d="M12.7366 7.90918H3.39676C2.65987 7.90918 2.0625 8.49574 2.0625 9.21929V13.8047C2.0625 14.5282 2.65987 15.1148 3.39676 15.1148H12.7366C13.4735 15.1148 14.0709 14.5282 14.0709 13.8047V9.21929C14.0709 8.49574 13.4735 7.90918 12.7366 7.90918Z" stroke="#C50709" stroke-linecap="round" stroke-linejoin="round"/>
<path d="M4.73096 7.90917V5.28895C4.73096 4.42029 5.08239 3.58721 5.70795 2.97298C6.3335 2.35874 7.18194 2.01367 8.06661 2.01367C8.95128 2.01367 9.79972 2.35874 10.4253 2.97298C11.0508 3.58721 11.4023 4.42029 11.4023 5.28895V7.90917" stroke="#C50709" stroke-linecap="round" stroke-linejoin="round"/>
</svg>
