<svg width="20" height="21" viewBox="0 0 20 21" fill="none" xmlns="http://www.w3.org/2000/svg">
<path d="M5 1.99707L2.5 5.43313V17.4593C2.5 17.915 2.67559 18.352 2.98816 18.6741C3.30072 18.9963 3.72464 19.1773 4.16667 19.1773H15.8333C16.2754 19.1773 16.6993 18.9963 17.0118 18.6741C17.3244 18.352 17.5 17.915 17.5 17.4593V5.43313L15 1.99707H5Z" stroke="#C50709" stroke-width="1.5" stroke-linecap="round" stroke-linejoin="round"/>
<path d="M2.5 5.43359H17.5" stroke="#C50709" stroke-width="1.5" stroke-linecap="round" stroke-linejoin="round"/>
<path d="M13.3332 8.87012C13.3332 9.78142 12.982 10.6554 12.3569 11.2998C11.7317 11.9442 10.8839 12.3062 9.99984 12.3062C9.11578 12.3062 8.26794 11.9442 7.64281 11.2998C7.01769 10.6554 6.6665 9.78142 6.6665 8.87012" stroke="#C50709" stroke-width="1.5" stroke-linecap="round" stroke-linejoin="round"/>
</svg>
