<svg width="17" height="16" viewBox="0 0 17 16" fill="none" xmlns="http://www.w3.org/2000/svg">
<path d="M2.125 4H3.54167H14.875" stroke="#D60609" stroke-linecap="round" stroke-linejoin="round"/>
<path d="M13.4587 3.99967V13.333C13.4587 13.6866 13.3094 14.0258 13.0437 14.2758C12.778 14.5259 12.4177 14.6663 12.042 14.6663H4.95866C4.58294 14.6663 4.2226 14.5259 3.95692 14.2758C3.69125 14.0258 3.54199 13.6866 3.54199 13.333V3.99967M5.66699 3.99967V2.66634C5.66699 2.31272 5.81625 1.97358 6.08192 1.72353C6.3476 1.47348 6.70794 1.33301 7.08366 1.33301H9.91699C10.2927 1.33301 10.653 1.47348 10.9187 1.72353C11.1844 1.97358 11.3337 2.31272 11.3337 2.66634V3.99967" stroke="#D60609" stroke-linecap="round" stroke-linejoin="round"/>
<path d="M7.08301 7.33301V11.333" stroke="#D60609" stroke-linecap="round" stroke-linejoin="round"/>
<path d="M9.91699 7.33301V11.333" stroke="#D60609" stroke-linecap="round" stroke-linejoin="round"/>
</svg>
