<svg width="12" height="12" viewBox="0 0 12 12" fill="none" xmlns="http://www.w3.org/2000/svg">
<path fill-rule="evenodd" clip-rule="evenodd" d="M5.18708 0.385077C5.6074 -0.128358 6.3926 -0.12836 6.81297 0.385077L7.33399 1.02149L8.10344 0.730858C8.72422 0.496394 9.40416 0.888977 9.51148 1.54381L9.64455 2.35548L10.4562 2.48851C11.1111 2.59583 11.5036 3.27581 11.2692 3.89657L10.9785 4.66601L11.6149 5.18705C12.1284 5.60742 12.1284 6.39257 11.6149 6.81294L10.9785 7.33401L11.2692 8.10341C11.5036 8.72419 11.1111 9.40417 10.4562 9.5115L9.64455 9.64451L9.51153 10.4562C9.40416 11.111 8.72422 11.5036 8.10344 11.2691L7.33399 10.9785L6.81297 11.6149C6.3926 12.1284 5.6074 12.1284 5.18708 11.6149L4.66602 10.9785L3.89657 11.2691C3.27581 11.5036 2.59583 11.111 2.48851 10.4562L2.35548 9.64451L1.54381 9.5115C0.888974 9.40417 0.496396 8.72419 0.73086 8.10341L1.02149 7.33401L0.385079 6.81294C-0.128359 6.39257 -0.128361 5.60742 0.385079 5.18705L1.02149 4.66601L0.73086 3.89657C0.496391 3.27581 0.888979 2.59583 1.54381 2.48851L2.35548 2.35548L2.48851 1.54381C2.59583 0.888977 3.27581 0.496394 3.89657 0.730858L4.66602 1.02149L5.18708 0.385077ZM5.5837 8.2101L9.261 4.53282L8.51808 3.78989L5.21224 7.09572L3.48239 5.36587L2.73946 6.10879L4.84078 8.2101C4.9393 8.30865 5.07293 8.36397 5.21224 8.36397C5.35156 8.36397 5.4852 8.30865 5.5837 8.2101Z" fill="#C50709"/>
</svg>
