<svg width="19" height="18" viewBox="0 0 19 18" fill="none" xmlns="http://www.w3.org/2000/svg">
<g clip-path="url(#clip0_116_9852)">
<path d="M13.955 13.455C12.6729 14.4323 11.1118 14.9737 9.5 15C4.25 15 1.25 9.00002 1.25 9.00002C2.18292 7.26144 3.47685 5.74247 5.045 4.54502M7.925 3.18002C8.44125 3.05918 8.9698 2.99877 9.5 3.00002C14.75 3.00002 17.75 9.00002 17.75 9.00002C17.2947 9.85172 16.7518 10.6536 16.13 11.3925M11.09 10.59C10.884 10.8111 10.6356 10.9884 10.3596 11.1114C10.0836 11.2343 9.78568 11.3005 9.48357 11.3058C9.18146 11.3111 8.88137 11.2556 8.60121 11.1424C8.32104 11.0292 8.06654 10.8608 7.85288 10.6471C7.63923 10.4335 7.47079 10.179 7.35763 9.89881C7.24447 9.61865 7.18889 9.31856 7.19423 9.01645C7.19956 8.71434 7.26568 8.4164 7.38866 8.1404C7.51163 7.86441 7.68894 7.61601 7.91 7.41002" stroke="black" stroke-linecap="round" stroke-linejoin="round"/>
<path d="M1.25 0.75L17.75 17.25" stroke="black" stroke-linecap="round" stroke-linejoin="round"/>
</g>
<defs>
<clipPath id="clip0_116_9852">
<rect width="18" height="18" fill="white" transform="translate(0.5)"/>
</clipPath>
</defs>
</svg>
