<svg width="14" height="11" viewBox="0 0 14 11" fill="none" xmlns="http://www.w3.org/2000/svg">
<path d="M13.3833 10.0216V0.93957C13.3833 0.73057 13.2362 0.55957 13.0564 0.55957H1.28832C1.10853 0.55957 0.961426 0.73057 0.961426 0.93957V10.0596C0.961426 10.5346 1.5008 10.4396 1.28832 10.4396H13.0564C13.5468 10.4396 13.318 9.56557 13.3833 10.0216ZM1.9421 9.67957L5.53792 4.22657L8.54533 8.80557L9.11739 9.67957H1.9421ZM9.95096 9.67957L9.21546 8.57757L10.4413 6.71557L12.3863 9.67957H9.95096ZM12.7295 8.91957L10.7028 5.84157C10.5721 5.63257 10.3105 5.63257 10.1798 5.84157L8.80684 7.93157L5.79943 3.37157C5.66867 3.16257 5.40716 3.16257 5.2764 3.37157L1.61521 8.93857V1.31957H12.7295V8.91957ZM8.97029 2.45957C8.33285 2.45957 7.82616 3.04857 7.82616 3.78957C7.82616 4.53057 8.33285 5.11957 8.97029 5.11957C9.60773 5.11957 10.1144 4.53057 10.1144 3.78957C10.1144 3.04857 9.59138 2.45957 8.97029 2.45957ZM8.97029 4.35957C8.70877 4.35957 8.47995 4.11257 8.47995 3.78957C8.47995 3.46657 8.69243 3.21957 8.97029 3.21957C9.24815 3.21957 9.46062 3.46657 9.46062 3.78957C9.46062 4.11257 9.2318 4.35957 8.97029 4.35957Z" fill="#C50709"/>
</svg>
