<svg width="306" height="111" viewBox="0 0 306 111" fill="none" xmlns="http://www.w3.org/2000/svg">
<rect x="30.4473" y="77.5234" width="4.56716" height="5.28571" rx="2.28358" fill="#C50709"/>
<rect x="30.9473" y="78.0234" width="3.56716" height="4.28571" rx="1.78358" stroke="black" stroke-opacity="0.11"/>
<rect x="98.9561" y="105.715" width="4.56716" height="5.28571" rx="2.28358" fill="#C50709"/>
<rect x="99.4561" y="106.215" width="3.56716" height="4.28571" rx="1.78358" stroke="black" stroke-opacity="0.11"/>
<path d="M130.143 21.3438V50.8808" stroke="#C50709" stroke-width="3" stroke-linecap="round" stroke-linejoin="round"/>
<path d="M137.286 26.7129H126.571C125.245 26.7129 123.973 27.208 123.036 28.0892C122.098 28.9705 121.571 30.1657 121.571 31.412C121.571 32.6582 122.098 33.8535 123.036 34.7347C123.973 35.616 125.245 36.111 126.571 36.111H133.714C135.04 36.111 136.312 36.6061 137.25 37.4874C138.187 38.3686 138.714 39.5638 138.714 40.8101C138.714 42.0564 138.187 43.2516 137.25 44.1329C136.312 45.0141 135.04 45.5092 133.714 45.5092H121.571" stroke="#C50709" stroke-width="3" stroke-linecap="round" stroke-linejoin="round"/>
<path d="M153.021 68.3346V44.168" stroke="#C50709" stroke-width="3" stroke-linecap="round" stroke-linejoin="round"/>
<path d="M166.187 68.3346V29.668" stroke="#C50709" stroke-width="3" stroke-linecap="round" stroke-linejoin="round"/>
<path d="M182.389 68.3346V17.668" stroke="#C50709" stroke-width="3" stroke-linecap="round" stroke-linejoin="round"/>
<path d="M139.857 68.3346V58.668" stroke="#C50709" stroke-width="3" stroke-linecap="round" stroke-linejoin="round"/>
<rect x="217.702" y="79.2852" width="4.56716" height="5.28571" rx="2.28358" fill="#C50709"/>
<rect x="218.202" y="79.7852" width="3.56716" height="4.28571" rx="1.78358" stroke="black" stroke-opacity="0.11"/>
<rect x="71.5527" y="3.52344" width="4.56716" height="5.28571" rx="2.28358" fill="#C50709" fill-opacity="0.52"/>
<rect x="72.0527" y="4.02344" width="3.56716" height="4.28571" rx="1.78358" stroke="black" stroke-opacity="0.11"/>
<rect x="211.612" width="4.56716" height="5.28571" rx="2.28358" fill="#C50709" fill-opacity="0.52"/>
<rect x="212.112" y="0.5" width="3.56716" height="4.28571" rx="1.78358" stroke="black" stroke-opacity="0.11"/>
<rect y="14.0957" width="4.56716" height="5.28571" rx="2.28358" fill="#C50709" fill-opacity="0.52"/>
<rect x="0.5" y="14.5957" width="3.56716" height="4.28571" rx="1.78358" stroke="black" stroke-opacity="0.11"/>
<rect x="283.165" y="93.3809" width="4.56716" height="5.28571" rx="2.28358" fill="#C50709"/>
<rect x="283.665" y="93.8809" width="3.56716" height="4.28571" rx="1.78358" stroke="black" stroke-opacity="0.11"/>
<rect x="301.433" y="15.8574" width="4.56716" height="5.28571" rx="2.28358" fill="#C50709" fill-opacity="0.42"/>
<rect x="301.933" y="16.3574" width="3.56716" height="4.28571" rx="1.78358" stroke="black" stroke-opacity="0.11"/>
</svg>
